<svg width="40" height="41" viewBox="0 0 40 41" fill="none" xmlns="http://www.w3.org/2000/svg">
<path d="M27 15.5H24V14.5C24 13.4391 23.5786 12.4217 22.8284 11.6716C22.0783 10.9214 21.0609 10.5 20 10.5C18.9391 10.5 17.9217 10.9214 17.1716 11.6716C16.4214 12.4217 16 13.4391 16 14.5V15.5H13C12.7348 15.5 12.4804 15.6054 12.2929 15.7929C12.1054 15.9804 12 16.2348 12 16.5V27.5C12 28.2956 12.3161 29.0587 12.8787 29.6213C13.4413 30.1839 14.2044 30.5 15 30.5H25C25.7956 30.5 26.5587 30.1839 27.1213 29.6213C27.6839 29.0587 28 28.2956 28 27.5V16.5C28 16.2348 27.8946 15.9804 27.7071 15.7929C27.5196 15.6054 27.2652 15.5 27 15.5ZM18 14.5C18 13.9696 18.2107 13.4609 18.5858 13.0858C18.9609 12.7107 19.4696 12.5 20 12.5C20.5304 12.5 21.0391 12.7107 21.4142 13.0858C21.7893 13.4609 22 13.9696 22 14.5V15.5H18V14.5ZM26 27.5C26 27.7652 25.8946 28.0196 25.7071 28.2071C25.5196 28.3946 25.2652 28.5 25 28.5H15C14.7348 28.5 14.4804 28.3946 14.2929 28.2071C14.1054 28.0196 14 27.7652 14 27.5V17.5H16V18.5C16 18.7652 16.1054 19.0196 16.2929 19.2071C16.4804 19.3946 16.7348 19.5 17 19.5C17.2652 19.5 17.5196 19.3946 17.7071 19.2071C17.8946 19.0196 18 18.7652 18 18.5V17.5H22V18.5C22 18.7652 22.1054 19.0196 22.2929 19.2071C22.4804 19.3946 22.7348 19.5 23 19.5C23.2652 19.5 23.5196 19.3946 23.7071 19.2071C23.8946 19.0196 24 18.7652 24 18.5V17.5H26V27.5Z" fill="#888888"/>
<path d="M27 15.5H24V14.5C24 13.4391 23.5786 12.4217 22.8284 11.6716C22.0783 10.9214 21.0609 10.5 20 10.5C18.9391 10.5 17.9217 10.9214 17.1716 11.6716C16.4214 12.4217 16 13.4391 16 14.5V15.5H13C12.7348 15.5 12.4804 15.6054 12.2929 15.7929C12.1054 15.9804 12 16.2348 12 16.5V27.5C12 28.2956 12.3161 29.0587 12.8787 29.6213C13.4413 30.1839 14.2044 30.5 15 30.5H25C25.7956 30.5 26.5587 30.1839 27.1213 29.6213C27.6839 29.0587 28 28.2956 28 27.5V16.5C28 16.2348 27.8946 15.9804 27.7071 15.7929C27.5196 15.6054 27.2652 15.5 27 15.5ZM18 14.5C18 13.9696 18.2107 13.4609 18.5858 13.0858C18.9609 12.7107 19.4696 12.5 20 12.5C20.5304 12.5 21.0391 12.7107 21.4142 13.0858C21.7893 13.4609 22 13.9696 22 14.5V15.5H18V14.5ZM26 27.5C26 27.7652 25.8946 28.0196 25.7071 28.2071C25.5196 28.3946 25.2652 28.5 25 28.5H15C14.7348 28.5 14.4804 28.3946 14.2929 28.2071C14.1054 28.0196 14 27.7652 14 27.5V17.5H16V18.5C16 18.7652 16.1054 19.0196 16.2929 19.2071C16.4804 19.3946 16.7348 19.5 17 19.5C17.2652 19.5 17.5196 19.3946 17.7071 19.2071C17.8946 19.0196 18 18.7652 18 18.5V17.5H22V18.5C22 18.7652 22.1054 19.0196 22.2929 19.2071C22.4804 19.3946 22.7348 19.5 23 19.5C23.2652 19.5 23.5196 19.3946 23.7071 19.2071C23.8946 19.0196 24 18.7652 24 18.5V17.5H26V27.5Z" fill="black" fill-opacity="0.2"/>
<rect x="19" y="1.5" width="20" height="20" rx="10" fill="#F03D3D"/>
<path d="M29.4476 16V14.18H24.6176V12.752L29.2096 6.2H31.2396V12.626H32.5276V14.18H31.2396V16H29.4476ZM26.5356 12.626H29.5596V8.174L26.5356 12.626Z" fill="white"/>
</svg>
