<svg width="40" height="41" viewBox="0 0 40 41" fill="none" xmlns="http://www.w3.org/2000/svg">
<path d="M29.7094 28.7904L25.9994 25.1104C27.4395 23.3148 28.1369 21.0357 27.9482 18.7417C27.7595 16.4477 26.6991 14.3132 24.9849 12.777C23.2708 11.2409 21.0332 10.4199 18.7323 10.4829C16.4315 10.5458 14.2421 11.488 12.6146 13.1155C10.987 14.7431 10.0448 16.9324 9.98189 19.2333C9.91893 21.5342 10.7399 23.7718 12.2761 25.4859C13.8122 27.2001 15.9467 28.2605 18.2407 28.4492C20.5347 28.6379 22.8138 27.9405 24.6094 26.5004L28.2894 30.1804C28.3824 30.2741 28.493 30.3485 28.6148 30.3993C28.7367 30.4501 28.8674 30.4762 28.9994 30.4762C29.1314 30.4762 29.2621 30.4501 29.384 30.3993C29.5059 30.3485 29.6165 30.2741 29.7094 30.1804C29.8897 29.9939 29.9904 29.7447 29.9904 29.4854C29.9904 29.2261 29.8897 28.9769 29.7094 28.7904ZM18.9994 26.5004C17.6149 26.5004 16.2616 26.0899 15.1104 25.3207C13.9593 24.5515 13.0621 23.4583 12.5323 22.1792C12.0024 20.9001 11.8638 19.4926 12.1339 18.1348C12.404 16.7769 13.0707 15.5296 14.0497 14.5506C15.0286 13.5717 16.2759 12.905 17.6338 12.6349C18.9917 12.3648 20.3991 12.5034 21.6782 13.0332C22.9573 13.563 24.0505 14.4603 24.8197 15.6114C25.5889 16.7625 25.9994 18.1159 25.9994 19.5004C25.9994 21.3569 25.2619 23.1374 23.9492 24.4501C22.6364 25.7629 20.8559 26.5004 18.9994 26.5004Z" fill="#888888"/>
<path d="M29.7094 28.7904L25.9994 25.1104C27.4395 23.3148 28.1369 21.0357 27.9482 18.7417C27.7595 16.4477 26.6991 14.3132 24.9849 12.777C23.2708 11.2409 21.0332 10.4199 18.7323 10.4829C16.4315 10.5458 14.2421 11.488 12.6146 13.1155C10.987 14.7431 10.0448 16.9324 9.98189 19.2333C9.91893 21.5342 10.7399 23.7718 12.2761 25.4859C13.8122 27.2001 15.9467 28.2605 18.2407 28.4492C20.5347 28.6379 22.8138 27.9405 24.6094 26.5004L28.2894 30.1804C28.3824 30.2741 28.493 30.3485 28.6148 30.3993C28.7367 30.4501 28.8674 30.4762 28.9994 30.4762C29.1314 30.4762 29.2621 30.4501 29.384 30.3993C29.5059 30.3485 29.6165 30.2741 29.7094 30.1804C29.8897 29.9939 29.9904 29.7447 29.9904 29.4854C29.9904 29.2261 29.8897 28.9769 29.7094 28.7904ZM18.9994 26.5004C17.6149 26.5004 16.2616 26.0899 15.1104 25.3207C13.9593 24.5515 13.0621 23.4583 12.5323 22.1792C12.0024 20.9001 11.8638 19.4926 12.1339 18.1348C12.404 16.7769 13.0707 15.5296 14.0497 14.5506C15.0286 13.5717 16.2759 12.905 17.6338 12.6349C18.9917 12.3648 20.3991 12.5034 21.6782 13.0332C22.9573 13.563 24.0505 14.4603 24.8197 15.6114C25.5889 16.7625 25.9994 18.1159 25.9994 19.5004C25.9994 21.3569 25.2619 23.1374 23.9492 24.4501C22.6364 25.7629 20.8559 26.5004 18.9994 26.5004Z" fill="black" fill-opacity="0.2"/>
</svg>
