<svg width="40" height="41" viewBox="0 0 40 41" fill="none" xmlns="http://www.w3.org/2000/svg">
<path d="M20.0005 10.5C18.061 10.5037 16.1644 11.0713 14.5418 12.1337C12.9191 13.1962 11.6404 14.7075 10.8615 16.4838C10.0825 18.26 9.83691 20.2244 10.1546 22.1378C10.4722 24.0511 11.3394 25.8308 12.6505 27.26C13.587 28.275 14.7235 29.0851 15.9885 29.6392C17.2535 30.1933 18.6195 30.4793 20.0005 30.4793C21.3816 30.4793 22.7476 30.1933 24.0126 29.6392C25.2776 29.0851 26.4141 28.275 27.3505 27.26C28.6617 25.8308 29.5289 24.0511 29.8465 22.1378C30.1642 20.2244 29.9186 18.26 29.1396 16.4838C28.3606 14.7075 27.082 13.1962 25.4593 12.1337C23.8367 11.0713 21.9401 10.5037 20.0005 10.5ZM20.0005 28.5C17.929 28.4969 15.9395 27.6903 14.4505 26.25C14.9026 25.1495 15.6716 24.2083 16.6598 23.5459C17.648 22.8835 18.8108 22.5298 20.0005 22.5298C21.1902 22.5298 22.3531 22.8835 23.3413 23.5459C24.3295 24.2083 25.0985 25.1495 25.5505 26.25C24.0616 27.6903 22.0721 28.4969 20.0005 28.5ZM18.0005 18.5C18.0005 18.1044 18.1178 17.7178 18.3376 17.3889C18.5574 17.06 18.8697 16.8036 19.2352 16.6522C19.6006 16.5009 20.0028 16.4613 20.3907 16.5384C20.7787 16.6156 21.135 16.8061 21.4148 17.0858C21.6945 17.3655 21.8849 17.7219 21.9621 18.1098C22.0393 18.4978 21.9997 18.8999 21.8483 19.2654C21.6969 19.6308 21.4406 19.9432 21.1117 20.1629C20.7828 20.3827 20.3961 20.5 20.0005 20.5C19.4701 20.5 18.9614 20.2893 18.5863 19.9142C18.2113 19.5391 18.0005 19.0304 18.0005 18.5ZM26.9105 24.5C26.0171 22.9718 24.6419 21.783 23.0005 21.12C23.5097 20.5427 23.8415 19.8307 23.956 19.0694C24.0705 18.3082 23.963 17.5301 23.6463 16.8285C23.3296 16.1269 22.8171 15.5316 22.1704 15.114C21.5238 14.6964 20.7703 14.4742 20.0005 14.4742C19.2307 14.4742 18.4773 14.6964 17.8306 15.114C17.184 15.5316 16.6715 16.1269 16.3548 16.8285C16.0381 17.5301 15.9305 18.3082 16.0451 19.0694C16.1596 19.8307 16.4914 20.5427 17.0005 21.12C15.3591 21.783 13.984 22.9718 13.0905 24.5C12.3785 23.2871 12.0023 21.9065 12.0005 20.5C12.0005 18.3783 12.8434 16.3434 14.3437 14.8431C15.844 13.3429 17.8788 12.5 20.0005 12.5C22.1223 12.5 24.1571 13.3429 25.6574 14.8431C27.1577 16.3434 28.0005 18.3783 28.0005 20.5C27.9988 21.9065 27.6226 23.2871 26.9105 24.5Z" fill="#888888"/>
<path d="M20.0005 10.5C18.061 10.5037 16.1644 11.0713 14.5418 12.1337C12.9191 13.1962 11.6404 14.7075 10.8615 16.4838C10.0825 18.26 9.83691 20.2244 10.1546 22.1378C10.4722 24.0511 11.3394 25.8308 12.6505 27.26C13.587 28.275 14.7235 29.0851 15.9885 29.6392C17.2535 30.1933 18.6195 30.4793 20.0005 30.4793C21.3816 30.4793 22.7476 30.1933 24.0126 29.6392C25.2776 29.0851 26.4141 28.275 27.3505 27.26C28.6617 25.8308 29.5289 24.0511 29.8465 22.1378C30.1642 20.2244 29.9186 18.26 29.1396 16.4838C28.3606 14.7075 27.082 13.1962 25.4593 12.1337C23.8367 11.0713 21.9401 10.5037 20.0005 10.5ZM20.0005 28.5C17.929 28.4969 15.9395 27.6903 14.4505 26.25C14.9026 25.1495 15.6716 24.2083 16.6598 23.5459C17.648 22.8835 18.8108 22.5298 20.0005 22.5298C21.1902 22.5298 22.3531 22.8835 23.3413 23.5459C24.3295 24.2083 25.0985 25.1495 25.5505 26.25C24.0616 27.6903 22.0721 28.4969 20.0005 28.5ZM18.0005 18.5C18.0005 18.1044 18.1178 17.7178 18.3376 17.3889C18.5574 17.06 18.8697 16.8036 19.2352 16.6522C19.6006 16.5009 20.0028 16.4613 20.3907 16.5384C20.7787 16.6156 21.135 16.8061 21.4148 17.0858C21.6945 17.3655 21.8849 17.7219 21.9621 18.1098C22.0393 18.4978 21.9997 18.8999 21.8483 19.2654C21.6969 19.6308 21.4406 19.9432 21.1117 20.1629C20.7828 20.3827 20.3961 20.5 20.0005 20.5C19.4701 20.5 18.9614 20.2893 18.5863 19.9142C18.2113 19.5391 18.0005 19.0304 18.0005 18.5ZM26.9105 24.5C26.0171 22.9718 24.6419 21.783 23.0005 21.12C23.5097 20.5427 23.8415 19.8307 23.956 19.0694C24.0705 18.3082 23.963 17.5301 23.6463 16.8285C23.3296 16.1269 22.8171 15.5316 22.1704 15.114C21.5238 14.6964 20.7703 14.4742 20.0005 14.4742C19.2307 14.4742 18.4773 14.6964 17.8306 15.114C17.184 15.5316 16.6715 16.1269 16.3548 16.8285C16.0381 17.5301 15.9305 18.3082 16.0451 19.0694C16.1596 19.8307 16.4914 20.5427 17.0005 21.12C15.3591 21.783 13.984 22.9718 13.0905 24.5C12.3785 23.2871 12.0023 21.9065 12.0005 20.5C12.0005 18.3783 12.8434 16.3434 14.3437 14.8431C15.844 13.3429 17.8788 12.5 20.0005 12.5C22.1223 12.5 24.1571 13.3429 25.6574 14.8431C27.1577 16.3434 28.0005 18.3783 28.0005 20.5C27.9988 21.9065 27.6226 23.2871 26.9105 24.5Z" fill="black" fill-opacity="0.2"/>
</svg>
